# xmcd
#
# Track frame offsets:
#	150
#	14101
#	24380
#	44566
#	54882
#	65863
#	75945
#	85885
#	100582
#	117904
#	132621
#	147806
#	157271
#	171232
#	185556
#	199266
#	216121
#	228585
#	245863
#	258618
#	269830
#	282924
#	297827
#	313033
#	322559
#	334974
#
# Disc length: 4733 seconds
#
# Revision: 0
# Processed by: cddbd v1.5.2PL0 Copyright (c) Steve Scherf et al.
# Submitted via: EZCDAudioConverter 1.3.4.1
#
DISCID=95127b1a
DTITLE=Various Artist - LOVE, POETRY and REVOLUTION 1/3
DYEAR=1900
DGENRE=
TTITLE0=DEEP FEELING - PRETTY COLOURS
TTITLE1=THE MISUNDERSTOOD - FIND THE HIDDEN DOOR
TTITLE2=THE IN CROWD - AM I GLAD TO SEE YOU?
TTITLE3=DRAG SET - DAY AND NIGHT
TTITLE4=TUESDAY'S CHILDREN - A STRANGE LIGHT FROM THE EAST
TTITLE5=THE MIRAGE - THE WEDDING OF RAMONA BLAIR
TTITLE6=THE HI-FIS - TREAD SOFTLY FOR THE SLEEPERS
TTITLE7=SPENCER DAVIS GROUP - MR. SECOND CLASS
TTITLE8=TINTERN ABBEY - BUSY BEE
TTITLE9=BLOSSOM TOES - I'LL BE LATE FOR TEA
TTITLE10=CRAZY WORLD OF ARTHUR BROWN - DEVIL'S GRIP
TTITLE11=SANDS - MRS. GILLESPIE'S REFRIGERATOR
TTITLE12=THE SHAME - DON'T GO 'WAY LITTLE GIRL
TTITLE13=PICADILLY LINE - ROSEMARY'S BLUEBELL DAY
TTITLE14=CROCHETED DOUGHNUT RING - TWO LITTLE LADIES (AZALEA AND RHODODENDRON)
TTITLE15=MIKE STUART SPAN - second production
TTITLE16=FELIUS ANDROMEDA - cheadle heath delusions
TTITLE17=NEON PEARL - just another day
TTITLE18=JOHN'S CHILDREN - jagged time lapse
TTITLE19=ONE IN A MILLION - man in yellow
TTITLE20=JADE HEXAGRAM - crushed purple
TTITLE21=DENIS COULDRY and THE NEXT COLLECTION - i am nearly there
TTITLE22=ALAN BOWN! - story book
TTITLE23=SIMON'S SECRETS - naughty boy
TTITLE24=THE CORTINAS - phoebe's flower shop
TTITLE25=THE DEVIANTS - child of the sky
EXTD=
EXTT0=
EXTT1=
EXTT2=
EXTT3=
EXTT4=
EXTT5=
EXTT6=
EXTT7=
EXTT8=
EXTT9=
EXTT10=
EXTT11=
EXTT12=
EXTT13=
EXTT14=
EXTT15=
EXTT16=
EXTT17=
EXTT18=
EXTT19=
EXTT20=
EXTT21=
EXTT22=
EXTT23=
EXTT24=
EXTT25=
PLAYORDER=
